<?xml version="1.0" standalone="no"?>
<svg xmlns:xlink="http://www.w3.org/1999/xlink" id="wave" style="transform:rotate(0deg); transition: 0.3s" viewBox="0 0 1440 490" version="1.1" xmlns="http://www.w3.org/2000/svg"><defs><linearGradient id="sw-gradient-0" x1="0" x2="0" y1="1" y2="0"><stop stop-color="rgba(237, 196, 68, 1)" offset="0%"/><stop stop-color="rgba(237, 196, 68, 1)" offset="100%"/></linearGradient></defs><path style="transform:translate(0, 0px); opacity:1" fill="url(#sw-gradient-0)" d="M0,0L240,16.3C480,33,960,65,1440,114.3C1920,163,2400,229,2880,269.5C3360,310,3840,327,4320,302.2C4800,278,5280,212,5760,171.5C6240,131,6720,114,7200,98C7680,82,8160,65,8640,81.7C9120,98,9600,147,10080,147C10560,147,11040,98,11520,106.2C12000,114,12480,180,12960,245C13440,310,13920,376,14400,359.3C14880,343,15360,245,15840,245C16320,245,16800,343,17280,351.2C17760,359,18240,278,18720,212.3C19200,147,19680,98,20160,114.3C20640,131,21120,212,21600,220.5C22080,229,22560,163,23040,130.7C23520,98,24000,98,24480,155.2C24960,212,25440,327,25920,383.8C26400,441,26880,441,27360,441C27840,441,28320,441,28800,424.7C29280,408,29760,376,30240,310.3C30720,245,31200,147,31680,106.2C32160,65,32640,82,33120,89.8C33600,98,34080,98,34320,98L34560,98L34560,490L34320,490C34080,490,33600,490,33120,490C32640,490,32160,490,31680,490C31200,490,30720,490,30240,490C29760,490,29280,490,28800,490C28320,490,27840,490,27360,490C26880,490,26400,490,25920,490C25440,490,24960,490,24480,490C24000,490,23520,490,23040,490C22560,490,22080,490,21600,490C21120,490,20640,490,20160,490C19680,490,19200,490,18720,490C18240,490,17760,490,17280,490C16800,490,16320,490,15840,490C15360,490,14880,490,14400,490C13920,490,13440,490,12960,490C12480,490,12000,490,11520,490C11040,490,10560,490,10080,490C9600,490,9120,490,8640,490C8160,490,7680,490,7200,490C6720,490,6240,490,5760,490C5280,490,4800,490,4320,490C3840,490,3360,490,2880,490C2400,490,1920,490,1440,490C960,490,480,490,240,490L0,490Z"/></svg>